<?xml version="1.0" encoding="UTF-8" standalone="no"?>
<svg
   width="162.49223pt"
   height="181.07809pt"
   viewBox="0 0 162.49223 181.07809"
   xmlns="http://www.w3.org/2000/svg"
   xmlns:svg="http://www.w3.org/2000/svg">
  <g
     transform="translate(-542.99216,-509.46097)">
    <path
       style="fill:#000000;fill-opacity:1;fill-rule:nonzero;stroke:none"
       d="m 590.35937,642.21094 42.5586,-42.5586 -0.0195,-0.0234 52.58593,-52.58594 h -45.8789 l 17.32422,-17.58203 h -15.91797 l -28.49219,28.92187 -30.80469,31.25781 v -25.58203 c 0,-3.13672 2.53907,-5.67578 5.67578,-5.67578 h 12.66797 L 610.99612,547.043 H 570.375 v 70.2539 l 58.05859,-58.91406 h 29.67969 l -42.55859,42.5586 0.0195,0.0234 -52.58203,52.58203 h 45.875 L 592.125,670.53906 h 15.91797 l 16.74219,-16.99219 11.17187,-11.33593 30.80078,-31.26172 v 25.58203 c 0,3.13672 -2.53906,5.67969 -5.67578,5.67969 h -13.6875 l -11.39062,11.33593 h 42.09375 v -70.2539 l -58.0586,58.91797 z m 0,0" />
  </g>
</svg>
